<svg xmlns="http://www.w3.org/2000/svg" xmlns:xlink="http://www.w3.org/1999/xlink" width="1707" zoomAndPan="magnify" viewBox="0 0 1280.25 1095.749968" height="1461" preserveAspectRatio="xMidYMid meet" version="1.0"><defs><g/><clipPath id="8b38ca9c1c"><path d="M 0 0.195312 L 1279 0.195312 L 1279 1094 L 0 1094 Z M 0 0.195312 " clip-rule="nonzero"/></clipPath></defs><g clip-path="url(#8b38ca9c1c)"><path fill="#000000" d="M 973.378906 0.59375 C 972.878906 1.195312 940.804688 3.691406 838.089844 11.1875 C 815.007812 12.886719 778.136719 15.582031 756.15625 17.183594 C 734.171875 18.78125 697.304688 21.476562 674.222656 23.175781 C 651.140625 24.875 614.269531 27.574219 592.289062 29.171875 C 570.308594 30.769531 527.339844 33.96875 496.867188 36.167969 C 466.390625 38.363281 423.425781 41.5625 401.445312 43.160156 C 379.460938 44.757812 342.792969 47.457031 320.011719 49.15625 C 297.230469 50.753906 256.960938 53.753906 230.582031 55.652344 C 204.203125 57.648438 177.027344 60.148438 170.234375 61.246094 C 94.894531 73.734375 32.746094 128.191406 10.164062 201.53125 C 6.765625 212.621094 4.367188 224.8125 2.167969 241.101562 C -0.0273438 258.386719 -0.0273438 260.285156 2.667969 290.960938 C 3.46875 301.152344 5.566406 328.328125 7.265625 351.410156 C 8.964844 374.492188 11.660156 411.359375 13.261719 433.34375 C 14.859375 455.324219 18.457031 504.585938 21.253906 542.753906 C 24.050781 580.921875 27.648438 630.382812 29.246094 652.664062 C 30.847656 674.945312 32.445312 696.730469 32.746094 701.125 C 34.644531 727.402344 37.039062 742.890625 41.738281 759.078125 C 51.429688 792.550781 68.914062 821.628906 94.195312 846.507812 C 110.679688 862.695312 126.566406 874.085938 148.25 884.976562 C 154.046875 887.972656 171.632812 897.164062 187.21875 905.660156 C 225.6875 926.339844 232.480469 929.640625 247.570312 934.535156 C 254.761719 936.832031 260.957031 939.03125 261.359375 939.429688 C 261.757812 939.832031 263.65625 961.214844 265.554688 986.992188 C 267.453125 1012.769531 269.25 1037.652344 269.652344 1042.449219 L 270.25 1050.941406 L 293.632812 1072.125 C 306.421875 1083.8125 317.414062 1093.304688 318.011719 1093.304688 C 318.613281 1093.304688 364.574219 1058.535156 420.230469 1016.070312 C 475.882812 973.601562 521.847656 938.53125 522.546875 938.132812 C 523.144531 937.734375 575.300781 935.632812 638.453125 933.4375 C 701.5 931.335938 766.648438 929.039062 783.132812 928.441406 C 799.621094 927.839844 825.699219 926.941406 841.085938 926.441406 C 856.472656 925.941406 882.351562 925.042969 898.539062 924.441406 C 914.726562 923.84375 967.382812 922.046875 1015.445312 920.445312 C 1106.070312 917.347656 1117.0625 916.550781 1134.648438 911.953125 C 1170.117188 902.761719 1198.996094 885.976562 1224.273438 859.894531 C 1236.066406 847.707031 1241.960938 840.3125 1249.152344 828.820312 C 1264.140625 804.539062 1272.933594 779.960938 1276.929688 750.585938 C 1279.03125 735.097656 1279.128906 724.507812 1277.429688 691.132812 C 1276.832031 677.945312 1275.832031 653.664062 1275.234375 637.175781 C 1273.835938 595.113281 1270.4375 497.691406 1269.238281 463.816406 C 1268.738281 448.132812 1267.339844 409.0625 1266.238281 376.890625 C 1262.242188 260.984375 1262.144531 259.183594 1257.148438 239 C 1250.953125 214.320312 1239.261719 190.242188 1223.375 169.558594 C 1220.878906 166.261719 1207.589844 150.972656 1193.800781 135.585938 C 1180.109375 120.199219 1161.527344 99.316406 1152.433594 89.125 C 1116.863281 49.253906 1101.375 36.367188 1071.398438 21.777344 C 1050.617188 11.585938 1031.230469 5.890625 1006.953125 2.59375 C 994.460938 0.894531 974.277344 -0.304688 973.378906 0.59375 Z M 1019.042969 28.574219 C 1082.589844 41.960938 1133.347656 87.425781 1153.332031 148.574219 C 1158.828125 165.460938 1160.925781 179.050781 1163.324219 211.523438 C 1164.421875 226.910156 1166.222656 251.589844 1167.320312 266.480469 C 1168.417969 281.265625 1171.617188 324.230469 1174.316406 361.902344 C 1177.011719 399.570312 1180.710938 449.03125 1182.308594 471.8125 C 1184.007812 494.59375 1186.703125 531.464844 1188.304688 553.746094 C 1190.003906 576.027344 1192 603.902344 1192.898438 615.695312 C 1196.496094 662.554688 1192.199219 690.234375 1176.714844 722.609375 C 1152.933594 772.265625 1108.367188 807.636719 1054.414062 819.828125 C 1043.121094 822.425781 1033.929688 823.425781 990.964844 826.523438 C 967.882812 828.222656 931.011719 830.917969 909.03125 832.519531 C 887.050781 834.117188 850.179688 836.816406 827.097656 838.511719 C 804.015625 840.210938 767.148438 842.910156 745.164062 844.507812 C 723.183594 846.105469 686.511719 848.804688 663.730469 850.503906 C 640.949219 852.101562 597.785156 855.300781 567.808594 857.496094 C 537.832031 859.695312 500.363281 862.394531 484.375 863.59375 C 459.597656 865.390625 455 865.992188 452.703125 867.589844 C 451.203125 868.589844 414.632812 898.664062 371.46875 934.433594 C 328.203125 970.105469 292.433594 999.382812 291.933594 999.382812 C 290.136719 999.382812 290.535156 1003.078125 283.441406 902.960938 C 282.542969 890.269531 281.542969 879.679688 281.140625 879.28125 C 280.742188 878.878906 270.851562 879.28125 259.058594 880.179688 C 226.886719 882.578125 204.605469 880.277344 179.226562 871.886719 C 136.558594 857.699219 98.292969 824.925781 77.808594 785.058594 C 68.914062 767.871094 62.519531 748.488281 59.824219 730.601562 C 58.921875 724.804688 57.324219 707.917969 56.226562 693.132812 C 55.125 678.242188 52.929688 647.269531 51.230469 624.1875 C 49.53125 601.105469 46.832031 564.238281 45.234375 542.253906 C 43.636719 520.273438 40.039062 471.011719 37.242188 432.84375 C 34.441406 394.675781 30.746094 345.214844 29.046875 322.933594 C 25.550781 277.871094 24.851562 246.394531 27.050781 234.003906 C 32.046875 206.226562 41.335938 182.648438 55.726562 161.066406 C 80.007812 124.792969 117.476562 98.414062 159.941406 87.722656 C 177.027344 83.328125 174.730469 83.628906 290.535156 75.132812 C 313.617188 73.4375 350.484375 70.738281 372.46875 69.140625 C 394.449219 67.539062 430.921875 64.84375 453.402344 63.246094 C 553.320312 55.949219 580.597656 53.953125 631.757812 50.15625 C 661.730469 47.957031 704.898438 44.757812 727.679688 43.160156 C 750.460938 41.460938 787.128906 38.765625 809.113281 37.164062 C 831.09375 35.566406 867.964844 32.871094 891.046875 31.171875 C 914.125 29.472656 940.707031 27.472656 949.996094 26.675781 C 975.675781 24.574219 1003.753906 25.375 1019.042969 28.574219 Z M 1019.042969 28.574219 " fill-opacity="1" fill-rule="nonzero"/></g><g fill="#000000" fill-opacity="1"><g transform="translate(66.209844, 417.714215)"><g><path d="M 70.546875 0 L 12.65625 0 L 12.65625 -100.515625 L 70.546875 -100.515625 L 70.546875 -83.0625 L 33.96875 -83.0625 L 33.96875 -60.984375 L 68 -60.984375 L 68 -43.515625 L 33.96875 -43.515625 L 33.96875 -17.609375 L 70.546875 -17.609375 Z M 70.546875 0 "/></g></g></g><g fill="#000000" fill-opacity="1"><g transform="translate(145.07377, 417.714215)"><g><path d="M 64.625 -22.828125 C 64.625 -14.941406 61.882812 -8.9375 56.40625 -4.8125 C 50.9375 -0.6875 42.742188 1.375 31.828125 1.375 C 26.242188 1.375 21.476562 0.992188 17.53125 0.234375 C 13.59375 -0.515625 9.90625 -1.625 6.46875 -3.09375 L 6.46875 -20.421875 C 10.363281 -18.585938 14.75 -17.050781 19.625 -15.8125 C 24.507812 -14.570312 28.804688 -13.953125 32.515625 -13.953125 C 40.128906 -13.953125 43.9375 -16.15625 43.9375 -20.5625 C 43.9375 -22.207031 43.429688 -23.546875 42.421875 -24.578125 C 41.410156 -25.609375 39.664062 -26.773438 37.1875 -28.078125 C 34.71875 -29.390625 31.421875 -30.914062 27.296875 -32.65625 C 21.378906 -35.132812 17.035156 -37.425781 14.265625 -39.53125 C 11.492188 -41.644531 9.476562 -44.0625 8.21875 -46.78125 C 6.957031 -49.507812 6.328125 -52.867188 6.328125 -56.859375 C 6.328125 -63.691406 8.972656 -68.972656 14.265625 -72.703125 C 19.554688 -76.441406 27.0625 -78.3125 36.78125 -78.3125 C 46.039062 -78.3125 55.050781 -76.296875 63.8125 -72.265625 L 57.484375 -57.140625 C 53.628906 -58.785156 50.03125 -60.132812 46.6875 -61.1875 C 43.34375 -62.25 39.925781 -62.78125 36.4375 -62.78125 C 30.25 -62.78125 27.15625 -61.101562 27.15625 -57.75 C 27.15625 -55.875 28.148438 -54.25 30.140625 -52.875 C 32.140625 -51.5 36.507812 -49.457031 43.25 -46.75 C 49.25 -44.320312 53.644531 -42.050781 56.4375 -39.9375 C 59.238281 -37.832031 61.300781 -35.40625 62.625 -32.65625 C 63.957031 -29.90625 64.625 -26.628906 64.625 -22.828125 Z M 64.625 -22.828125 "/></g></g></g><g fill="#000000" fill-opacity="1"><g transform="translate(215.068082, 417.714215)"><g><path d="M 43.390625 -15.328125 C 47.054688 -15.328125 51.457031 -16.128906 56.59375 -17.734375 L 56.59375 -2.125 C 51.363281 0.207031 44.941406 1.375 37.328125 1.375 C 28.941406 1.375 22.832031 -0.742188 19 -4.984375 C 15.175781 -9.222656 13.265625 -15.582031 13.265625 -24.0625 L 13.265625 -61.125 L 3.234375 -61.125 L 3.234375 -70 L 14.78125 -77 L 20.828125 -93.234375 L 34.234375 -93.234375 L 34.234375 -76.875 L 55.765625 -76.875 L 55.765625 -61.125 L 34.234375 -61.125 L 34.234375 -24.0625 C 34.234375 -21.082031 35.070312 -18.878906 36.75 -17.453125 C 38.425781 -16.035156 40.640625 -15.328125 43.390625 -15.328125 Z M 43.390625 -15.328125 "/></g></g></g><g fill="#000000" fill-opacity="1"><g transform="translate(276.19278, 417.714215)"><g><path d="M 59.8125 0 L 55.765625 -10.453125 L 55.21875 -10.453125 C 51.6875 -6.003906 48.050781 -2.921875 44.3125 -1.203125 C 40.570312 0.515625 35.703125 1.375 29.703125 1.375 C 22.328125 1.375 16.515625 -0.734375 12.265625 -4.953125 C 8.023438 -9.171875 5.90625 -15.175781 5.90625 -22.96875 C 5.90625 -31.125 8.757812 -37.140625 14.46875 -41.015625 C 20.175781 -44.890625 28.785156 -47.03125 40.296875 -47.4375 L 53.625 -47.859375 L 53.625 -51.21875 C 53.625 -59.007812 49.640625 -62.90625 41.671875 -62.90625 C 35.523438 -62.90625 28.304688 -61.050781 20.015625 -57.34375 L 13.0625 -71.5 C 21.90625 -76.132812 31.710938 -78.453125 42.484375 -78.453125 C 52.804688 -78.453125 60.71875 -76.203125 66.21875 -71.703125 C 71.71875 -67.210938 74.46875 -60.382812 74.46875 -51.21875 L 74.46875 0 Z M 53.625 -35.609375 L 45.515625 -35.34375 C 39.421875 -35.15625 34.882812 -34.050781 31.90625 -32.03125 C 28.925781 -30.019531 27.4375 -26.953125 27.4375 -22.828125 C 27.4375 -16.910156 30.828125 -13.953125 37.609375 -13.953125 C 42.460938 -13.953125 46.34375 -15.347656 49.25 -18.140625 C 52.164062 -20.941406 53.625 -24.660156 53.625 -29.296875 Z M 53.625 -35.609375 "/></g></g></g><g fill="#000000" fill-opacity="1"><g transform="translate(361.244821, 417.714215)"><g><path d="M 79.828125 0 L 58.859375 0 L 58.859375 -44.890625 C 58.859375 -50.441406 57.925781 -54.601562 56.0625 -57.375 C 54.207031 -60.144531 51.285156 -61.53125 47.296875 -61.53125 C 41.941406 -61.53125 38.046875 -59.554688 35.609375 -55.609375 C 33.179688 -51.671875 31.96875 -45.191406 31.96875 -36.171875 L 31.96875 0 L 11 0 L 11 -76.875 L 27.015625 -76.875 L 29.84375 -67.03125 L 31.015625 -67.03125 C 33.078125 -70.5625 36.054688 -73.320312 39.953125 -75.3125 C 43.847656 -77.3125 48.316406 -78.3125 53.359375 -78.3125 C 64.859375 -78.3125 72.648438 -74.550781 76.734375 -67.03125 L 78.59375 -67.03125 C 80.65625 -70.613281 83.691406 -73.390625 87.703125 -75.359375 C 91.710938 -77.328125 96.238281 -78.3125 101.28125 -78.3125 C 109.988281 -78.3125 116.578125 -76.078125 121.046875 -71.609375 C 125.515625 -67.140625 127.75 -59.976562 127.75 -50.125 L 127.75 0 L 106.703125 0 L 106.703125 -44.890625 C 106.703125 -50.441406 105.773438 -54.601562 103.921875 -57.375 C 102.066406 -60.144531 99.144531 -61.53125 95.15625 -61.53125 C 90.019531 -61.53125 86.179688 -59.695312 83.640625 -56.03125 C 81.097656 -52.363281 79.828125 -46.546875 79.828125 -38.578125 Z M 79.828125 0 "/></g></g></g><g fill="#000000" fill-opacity="1"><g transform="translate(499.514541, 417.714215)"><g><path d="M 27.703125 -38.578125 C 27.703125 -30.960938 28.953125 -25.207031 31.453125 -21.3125 C 33.953125 -17.414062 38.019531 -15.46875 43.65625 -15.46875 C 49.25 -15.46875 53.269531 -17.40625 55.71875 -21.28125 C 58.175781 -25.15625 59.40625 -30.921875 59.40625 -38.578125 C 59.40625 -46.179688 58.164062 -51.882812 55.6875 -55.6875 C 53.21875 -59.5 49.160156 -61.40625 43.515625 -61.40625 C 37.929688 -61.40625 33.898438 -59.507812 31.421875 -55.71875 C 28.941406 -51.9375 27.703125 -46.222656 27.703125 -38.578125 Z M 80.859375 -38.578125 C 80.859375 -26.054688 77.554688 -16.265625 70.953125 -9.203125 C 64.359375 -2.148438 55.171875 1.375 43.390625 1.375 C 36.003906 1.375 29.492188 -0.238281 23.859375 -3.46875 C 18.222656 -6.695312 13.890625 -11.335938 10.859375 -17.390625 C 7.835938 -23.441406 6.328125 -30.503906 6.328125 -38.578125 C 6.328125 -51.128906 9.601562 -60.890625 16.15625 -67.859375 C 22.707031 -74.828125 31.921875 -78.3125 43.796875 -78.3125 C 51.179688 -78.3125 57.691406 -76.707031 63.328125 -73.5 C 68.960938 -70.289062 73.289062 -65.679688 76.3125 -59.671875 C 79.34375 -53.671875 80.859375 -46.640625 80.859375 -38.578125 Z M 80.859375 -38.578125 "/></g></g></g><g fill="#000000" fill-opacity="1"><g transform="translate(586.698026, 417.714215)"><g><path d="M 64.625 -22.828125 C 64.625 -14.941406 61.882812 -8.9375 56.40625 -4.8125 C 50.9375 -0.6875 42.742188 1.375 31.828125 1.375 C 26.242188 1.375 21.476562 0.992188 17.53125 0.234375 C 13.59375 -0.515625 9.90625 -1.625 6.46875 -3.09375 L 6.46875 -20.421875 C 10.363281 -18.585938 14.75 -17.050781 19.625 -15.8125 C 24.507812 -14.570312 28.804688 -13.953125 32.515625 -13.953125 C 40.128906 -13.953125 43.9375 -16.15625 43.9375 -20.5625 C 43.9375 -22.207031 43.429688 -23.546875 42.421875 -24.578125 C 41.410156 -25.609375 39.664062 -26.773438 37.1875 -28.078125 C 34.71875 -29.390625 31.421875 -30.914062 27.296875 -32.65625 C 21.378906 -35.132812 17.035156 -37.425781 14.265625 -39.53125 C 11.492188 -41.644531 9.476562 -44.0625 8.21875 -46.78125 C 6.957031 -49.507812 6.328125 -52.867188 6.328125 -56.859375 C 6.328125 -63.691406 8.972656 -68.972656 14.265625 -72.703125 C 19.554688 -76.441406 27.0625 -78.3125 36.78125 -78.3125 C 46.039062 -78.3125 55.050781 -76.296875 63.8125 -72.265625 L 57.484375 -57.140625 C 53.628906 -58.785156 50.03125 -60.132812 46.6875 -61.1875 C 43.34375 -62.25 39.925781 -62.78125 36.4375 -62.78125 C 30.25 -62.78125 27.15625 -61.101562 27.15625 -57.75 C 27.15625 -55.875 28.148438 -54.25 30.140625 -52.875 C 32.140625 -51.5 36.507812 -49.457031 43.25 -46.75 C 49.25 -44.320312 53.644531 -42.050781 56.4375 -39.9375 C 59.238281 -37.832031 61.300781 -35.40625 62.625 -32.65625 C 63.957031 -29.90625 64.625 -26.628906 64.625 -22.828125 Z M 64.625 -22.828125 "/></g></g></g><g fill="#000000" fill-opacity="1"><g transform="translate(656.692365, 417.714215)"><g/></g></g><g fill="#000000" fill-opacity="1"><g transform="translate(693.270924, 417.714215)"><g><path d="M 42.828125 -15.0625 C 48.148438 -15.0625 52.046875 -16.582031 54.515625 -19.625 C 56.992188 -22.675781 58.347656 -28.003906 58.578125 -35.609375 L 58.578125 -38.15625 C 58.578125 -46.40625 57.304688 -52.316406 54.765625 -55.890625 C 52.222656 -59.472656 48.128906 -61.265625 42.484375 -61.265625 C 32.628906 -61.265625 27.703125 -53.515625 27.703125 -38.015625 C 27.703125 -30.316406 28.925781 -24.566406 31.375 -20.765625 C 33.832031 -16.960938 37.648438 -15.0625 42.828125 -15.0625 Z M 35.34375 1.375 C 26.269531 1.375 19.164062 -2.117188 14.03125 -9.109375 C 8.894531 -16.097656 6.328125 -25.828125 6.328125 -38.296875 C 6.328125 -50.859375 8.953125 -60.664062 14.203125 -67.71875 C 19.453125 -74.78125 26.632812 -78.3125 35.75 -78.3125 C 40.613281 -78.3125 44.851562 -77.394531 48.46875 -75.5625 C 52.09375 -73.726562 55.28125 -70.882812 58.03125 -67.03125 L 58.578125 -67.03125 L 60.4375 -76.875 L 78.171875 -76.875 L 78.171875 33.828125 L 57.140625 33.828125 L 57.140625 1.578125 C 57.140625 -1.210938 57.4375 -5.0625 58.03125 -9.96875 L 57.140625 -9.96875 C 54.890625 -6.257812 51.90625 -3.441406 48.1875 -1.515625 C 44.476562 0.410156 40.195312 1.375 35.34375 1.375 Z M 35.34375 1.375 "/></g></g></g><g fill="#000000" fill-opacity="1"><g transform="translate(782.379596, 417.714215)"><g><path d="M 65.453125 0 L 62.640625 -9.828125 L 61.53125 -9.828125 C 59.289062 -6.253906 56.109375 -3.492188 51.984375 -1.546875 C 47.859375 0.398438 43.160156 1.375 37.890625 1.375 C 28.859375 1.375 22.050781 -1.039062 17.46875 -5.875 C 12.882812 -10.707031 10.59375 -17.664062 10.59375 -26.75 L 10.59375 -76.875 L 31.5625 -76.875 L 31.5625 -31.96875 C 31.5625 -26.425781 32.546875 -22.265625 34.515625 -19.484375 C 36.484375 -16.710938 39.625 -15.328125 43.9375 -15.328125 C 49.800781 -15.328125 54.039062 -17.285156 56.65625 -21.203125 C 59.269531 -25.128906 60.578125 -31.628906 60.578125 -40.703125 L 60.578125 -76.875 L 81.546875 -76.875 L 81.546875 0 Z M 65.453125 0 "/></g></g></g><g fill="#000000" fill-opacity="1"><g transform="translate(874.92613, 417.714215)"><g><path d="M 59.8125 0 L 55.765625 -10.453125 L 55.21875 -10.453125 C 51.6875 -6.003906 48.050781 -2.921875 44.3125 -1.203125 C 40.570312 0.515625 35.703125 1.375 29.703125 1.375 C 22.328125 1.375 16.515625 -0.734375 12.265625 -4.953125 C 8.023438 -9.171875 5.90625 -15.175781 5.90625 -22.96875 C 5.90625 -31.125 8.757812 -37.140625 14.46875 -41.015625 C 20.175781 -44.890625 28.785156 -47.03125 40.296875 -47.4375 L 53.625 -47.859375 L 53.625 -51.21875 C 53.625 -59.007812 49.640625 -62.90625 41.671875 -62.90625 C 35.523438 -62.90625 28.304688 -61.050781 20.015625 -57.34375 L 13.0625 -71.5 C 21.90625 -76.132812 31.710938 -78.453125 42.484375 -78.453125 C 52.804688 -78.453125 60.71875 -76.203125 66.21875 -71.703125 C 71.71875 -67.210938 74.46875 -60.382812 74.46875 -51.21875 L 74.46875 0 Z M 53.625 -35.609375 L 45.515625 -35.34375 C 39.421875 -35.15625 34.882812 -34.050781 31.90625 -32.03125 C 28.925781 -30.019531 27.4375 -26.953125 27.4375 -22.828125 C 27.4375 -16.910156 30.828125 -13.953125 37.609375 -13.953125 C 42.460938 -13.953125 46.34375 -15.347656 49.25 -18.140625 C 52.164062 -20.941406 53.625 -24.660156 53.625 -29.296875 Z M 53.625 -35.609375 "/></g></g></g><g fill="#000000" fill-opacity="1"><g transform="translate(959.978144, 417.714215)"><g><path d="M 64.625 -22.828125 C 64.625 -14.941406 61.882812 -8.9375 56.40625 -4.8125 C 50.9375 -0.6875 42.742188 1.375 31.828125 1.375 C 26.242188 1.375 21.476562 0.992188 17.53125 0.234375 C 13.59375 -0.515625 9.90625 -1.625 6.46875 -3.09375 L 6.46875 -20.421875 C 10.363281 -18.585938 14.75 -17.050781 19.625 -15.8125 C 24.507812 -14.570312 28.804688 -13.953125 32.515625 -13.953125 C 40.128906 -13.953125 43.9375 -16.15625 43.9375 -20.5625 C 43.9375 -22.207031 43.429688 -23.546875 42.421875 -24.578125 C 41.410156 -25.609375 39.664062 -26.773438 37.1875 -28.078125 C 34.71875 -29.390625 31.421875 -30.914062 27.296875 -32.65625 C 21.378906 -35.132812 17.035156 -37.425781 14.265625 -39.53125 C 11.492188 -41.644531 9.476562 -44.0625 8.21875 -46.78125 C 6.957031 -49.507812 6.328125 -52.867188 6.328125 -56.859375 C 6.328125 -63.691406 8.972656 -68.972656 14.265625 -72.703125 C 19.554688 -76.441406 27.0625 -78.3125 36.78125 -78.3125 C 46.039062 -78.3125 55.050781 -76.296875 63.8125 -72.265625 L 57.484375 -57.140625 C 53.628906 -58.785156 50.03125 -60.132812 46.6875 -61.1875 C 43.34375 -62.25 39.925781 -62.78125 36.4375 -62.78125 C 30.25 -62.78125 27.15625 -61.101562 27.15625 -57.75 C 27.15625 -55.875 28.148438 -54.25 30.140625 -52.875 C 32.140625 -51.5 36.507812 -49.457031 43.25 -46.75 C 49.25 -44.320312 53.644531 -42.050781 56.4375 -39.9375 C 59.238281 -37.832031 61.300781 -35.40625 62.625 -32.65625 C 63.957031 -29.90625 64.625 -26.628906 64.625 -22.828125 Z M 64.625 -22.828125 "/></g></g></g><g fill="#000000" fill-opacity="1"><g transform="translate(1029.972431, 417.714215)"><g><path d="M 42.828125 -63.390625 C 38.390625 -63.390625 34.910156 -61.976562 32.390625 -59.15625 C 29.867188 -56.34375 28.421875 -52.347656 28.046875 -47.171875 L 57.484375 -47.171875 C 57.390625 -52.347656 56.035156 -56.34375 53.421875 -59.15625 C 50.804688 -61.976562 47.273438 -63.390625 42.828125 -63.390625 Z M 45.796875 1.375 C 33.421875 1.375 23.75 -2.035156 16.78125 -8.859375 C 9.8125 -15.691406 6.328125 -25.367188 6.328125 -37.890625 C 6.328125 -50.765625 9.546875 -60.71875 15.984375 -67.75 C 22.421875 -74.789062 31.328125 -78.3125 42.703125 -78.3125 C 53.566406 -78.3125 62.019531 -75.21875 68.0625 -69.03125 C 74.113281 -62.84375 77.140625 -54.296875 77.140625 -43.390625 L 77.140625 -33.203125 L 27.578125 -33.203125 C 27.804688 -27.242188 29.566406 -22.59375 32.859375 -19.25 C 36.160156 -15.90625 40.789062 -14.234375 46.75 -14.234375 C 51.382812 -14.234375 55.765625 -14.710938 59.890625 -15.671875 C 64.015625 -16.640625 68.320312 -18.175781 72.8125 -20.28125 L 72.8125 -4.0625 C 69.144531 -2.226562 65.222656 -0.863281 61.046875 0.03125 C 56.878906 0.925781 51.796875 1.375 45.796875 1.375 Z M 45.796875 1.375 "/></g></g></g><g fill="#000000" fill-opacity="1"><g transform="translate(1113.168529, 417.714215)"><g/></g></g><g fill="#000000" fill-opacity="1"><g transform="translate(523.820571, 614.23117)"><g><path d="M 31.96875 0 L 11 0 L 11 -106.984375 L 31.96875 -106.984375 Z M 31.96875 0 "/></g></g></g><g fill="#000000" fill-opacity="1"><g transform="translate(566.793503, 614.23117)"><g><path d="M 59.8125 0 L 55.765625 -10.453125 L 55.21875 -10.453125 C 51.6875 -6.003906 48.050781 -2.921875 44.3125 -1.203125 C 40.570312 0.515625 35.703125 1.375 29.703125 1.375 C 22.328125 1.375 16.515625 -0.734375 12.265625 -4.953125 C 8.023438 -9.171875 5.90625 -15.175781 5.90625 -22.96875 C 5.90625 -31.125 8.757812 -37.140625 14.46875 -41.015625 C 20.175781 -44.890625 28.785156 -47.03125 40.296875 -47.4375 L 53.625 -47.859375 L 53.625 -51.21875 C 53.625 -59.007812 49.640625 -62.90625 41.671875 -62.90625 C 35.523438 -62.90625 28.304688 -61.050781 20.015625 -57.34375 L 13.0625 -71.5 C 21.90625 -76.132812 31.710938 -78.453125 42.484375 -78.453125 C 52.804688 -78.453125 60.71875 -76.203125 66.21875 -71.703125 C 71.71875 -67.210938 74.46875 -60.382812 74.46875 -51.21875 L 74.46875 0 Z M 53.625 -35.609375 L 45.515625 -35.34375 C 39.421875 -35.15625 34.882812 -34.050781 31.90625 -32.03125 C 28.925781 -30.019531 27.4375 -26.953125 27.4375 -22.828125 C 27.4375 -16.910156 30.828125 -13.953125 37.609375 -13.953125 C 42.460938 -13.953125 46.34375 -15.347656 49.25 -18.140625 C 52.164062 -20.941406 53.625 -24.660156 53.625 -29.296875 Z M 30.328125 -85.328125 L 30.328125 -87.1875 C 38.210938 -96.351562 43.597656 -103.25 46.484375 -107.875 L 70 -107.875 L 70 -106.4375 C 67.613281 -104.050781 63.546875 -100.507812 57.796875 -95.8125 C 52.046875 -91.113281 47.539062 -87.617188 44.28125 -85.328125 Z M 30.328125 -85.328125 "/></g></g></g><g fill="#000000" fill-opacity="1"><g transform="translate(651.84553, 614.23117)"><g><path d="M 28.609375 -33.34375 L 11.828125 -33.34375 L 8.3125 -100.515625 L 32.109375 -100.515625 Z M 8.046875 -9.828125 C 8.046875 -13.679688 9.078125 -16.59375 11.140625 -18.5625 C 13.203125 -20.53125 16.203125 -21.515625 20.140625 -21.515625 C 23.953125 -21.515625 26.898438 -20.503906 28.984375 -18.484375 C 31.066406 -16.472656 32.109375 -13.585938 32.109375 -9.828125 C 32.109375 -6.210938 31.050781 -3.359375 28.9375 -1.265625 C 26.832031 0.816406 23.898438 1.859375 20.140625 1.859375 C 16.296875 1.859375 13.316406 0.835938 11.203125 -1.203125 C 9.097656 -3.242188 8.046875 -6.117188 8.046875 -9.828125 Z M 8.046875 -9.828125 "/></g></g></g></svg>